<svg xmlns="http://www.w3.org/2000/svg" version="1.1" xmlns:xlink="http://www.w3.org/1999/xlink" xmlns:svgjs="http://svgjs.dev/svgjs" width="1000" height="1000" viewBox="0 0 1000 1000"><rect width="1000" height="1000" fill="#000000"></rect><g transform="matrix(0.7,0,0,0.7,149.57575757575756,437.97324732916513)"><svg viewBox="0 0 396 70" data-background-color="#0f0f0f" preserveAspectRatio="xMidYMid meet" height="176" width="1000" xmlns="http://www.w3.org/2000/svg" xmlns:xlink="http://www.w3.org/1999/xlink"><g id="tight-bounds" transform="matrix(1,0,0,1,0.2400000000000091,0.24247310842889647)"><svg viewBox="0 0 395.52 69.51505378314219" height="69.51505378314219" width="395.52"><g><svg viewBox="0 0 497.99747856640204 87.52609604169862" height="69.51505378314219" width="395.52"><g transform="matrix(1,0,0,1,0,12.096587803158062)"><svg viewBox="0 0 395.52000000000004 63.3329204353825" height="63.3329204353825" width="395.52000000000004"><g id="textblocktransform"><svg viewBox="0 0 395.52000000000004 63.3329204353825" height="63.3329204353825" width="395.52000000000004" id="textblock"><g><svg viewBox="0 0 395.52000000000004 63.3329204353825" height="63.3329204353825" width="395.52000000000004"><g transform="matrix(1,0,0,1,0,0)"><svg width="395.52000000000004" viewBox="3.759999990463257 -36.689998626708984 318.47998046875 51" height="63.3329204353825" data-palette-color="url(#66c194ba-8cec-4b83-9a76-bb757829b1aa)"></svg></g></svg></g></svg></g></svg></g><g transform="matrix(1,0,0,1,410.4713825247034,0)"><svg viewBox="0 0 87.52609604169862 87.52609604169862" height="87.52609604169862" width="87.52609604169862"><g><svg xmlns="http://www.w3.org/2000/svg" xmlns:xlink="http://www.w3.org/1999/xlink" version="1.1" x="0" y="0" viewBox="0 0 48 48" enable-background="new 0 0 48 48" xml:space="preserve" height="87.52609604169862" width="87.52609604169862" class="icon-icon-0" data-fill-palette-color="accent" id="icon-0"></svg></g></svg></g></svg></g><defs></defs><mask id="43daf2b3-b6dd-4a49-af97-b1cf84e6d400"><g id="SvgjsG1979"><svg viewBox="0 0 395.52 69.51505378314219" height="69.51505378314219" width="395.52"><g><svg viewBox="0 0 497.99747856640204 87.52609604169862" height="69.51505378314219" width="395.52"><g transform="matrix(1,0,0,1,0,12.096587803158062)"><svg viewBox="0 0 395.52000000000004 63.3329204353825" height="63.3329204353825" width="395.52000000000004"><g id="SvgjsG1978"><svg viewBox="0 0 395.52000000000004 63.3329204353825" height="63.3329204353825" width="395.52000000000004" id="SvgjsSvg1977"><g><svg viewBox="0 0 395.52000000000004 63.3329204353825" height="63.3329204353825" width="395.52000000000004"><g transform="matrix(1,0,0,1,0,0)"><svg width="395.52000000000004" viewBox="3.759999990463257 -36.689998626708984 318.47998046875 51" height="63.3329204353825" data-palette-color="url(#66c194ba-8cec-4b83-9a76-bb757829b1aa)"><path d="M24.1-5.05L35.69-33.96Q37.45-35.25 39.5-35.6L39.5-35.6 42.75-4.39Q42.9-2.42 43.77-1.6 44.65-0.78 46.95-0.61L46.95-0.61 46.8 0Q43.99-0.07 42.43 0.05 40.87 0.17 39.11 0.76L39.11 0.76 38.94 0.49Q39.4-0.29 39.21-2.1L39.21-2.1 36.35-30.49 23.8 0.95 22.09 0.15Q22-1.59 20.7-4.76L20.7-4.76 9.55-29.44 6.69-3.39Q6.59-2.54 6.82-2.01 7.06-1.49 7.95-1.04 8.84-0.59 10.6-0.24L10.6-0.24 10.5 0.2Q6.49-0.1 4.25 0L4.25 0Q4.05-0.2 3.96-0.49L3.96-0.49 7.64-32.45Q6.96-33.01 5.96-33.04 4.96-33.08 4.05-32.86L4.05-32.86 3.76-33.35Q7.4-35.4 10.4-35.4L10.4-35.4Q10.99-34.08 16.98-20.75 22.97-7.42 24.1-5.05L24.1-5.05ZM52.68-11.89L52.68-11.89Q52.68-14.48 53.54-16.91 54.39-19.34 55.98-21.23 57.57-23.12 59.82-24.26 62.08-25.39 64.89-25.39L64.89-25.39Q66.65-25.39 68.21-24.79 69.77-24.19 70.93-22.94 72.09-21.68 72.76-19.71 73.44-17.75 73.44-15.04L73.44-15.04 72.48-14.16 56.54-14.16Q56.49-13.75 56.49-13.35 56.49-12.96 56.49-12.57L56.49-12.57Q56.49-9.91 57.11-7.74 57.74-5.57 58.8-4.02 59.86-2.47 61.3-1.61 62.74-0.76 64.35-0.76L64.35-0.76Q65.38-0.76 66.44-0.92 67.5-1.07 68.52-1.42 69.53-1.76 70.48-2.29 71.43-2.83 72.24-3.59L72.24-3.59 73.24-2.54Q71.31-0.63 69.04 0.18 66.77 1 63.79 1L63.79 1Q61.45 1 59.41 0.1 57.37-0.81 55.88-2.49 54.39-4.17 53.54-6.56 52.68-8.94 52.68-11.89ZM64.35-23.71L64.35-23.71Q60.57-23.71 58.81-21.74 57.05-19.78 56.69-16.09L56.69-16.09 70.29-16.09Q70.09-20.09 68.49-21.9 66.89-23.71 64.35-23.71ZM95.26-5.69L95.26-5.69Q95.26-3.93 94.55-2.66 93.84-1.39 92.66-0.57 91.47 0.24 89.9 0.62 88.33 1 86.59 1L86.59 1Q82.39 1 78.71-0.76L78.71-0.76Q79.17-2.37 79.63-3.75 80.1-5.13 80.59-6.3L80.59-6.3 81.29-6.05Q81.07-4.98 81.07-3.99 81.07-3 81.15-2.2L81.15-2.2Q81.9-1.81 82.56-1.53 83.22-1.25 83.88-1.06 84.54-0.88 85.3-0.79 86.05-0.71 87.06-0.71L87.06-0.71Q88.54-0.71 89.52-0.9 90.5-1.1 91.05-1.57 91.6-2.05 91.82-2.84 92.04-3.64 92.04-4.81L92.04-4.81Q92.04-5.71 91.73-6.51 91.43-7.3 90.68-8.08 89.94-8.86 88.7-9.7 87.47-10.55 85.64-11.55L85.64-11.55Q82.69-13.31 81.17-15.05 79.66-16.8 79.66-18.8L79.66-18.8Q79.66-20.39 80.32-21.62 80.98-22.85 82.11-23.69 83.25-24.54 84.76-24.96 86.27-25.39 87.96-25.39L87.96-25.39Q88.81-25.39 89.75-25.27 90.69-25.15 91.57-24.91 92.45-24.68 93.22-24.35 93.99-24.02 94.55-23.61L94.55-23.61Q93.77-20.41 92.65-17.99L92.65-17.99 91.94-18.26Q91.99-18.97 92.01-20.01 92.04-21.04 92.04-22.46L92.04-22.46Q90.45-23.71 87.64-23.71L87.64-23.71Q86.25-23.71 85.29-23.54 84.32-23.36 83.74-22.95 83.15-22.53 82.89-21.81 82.64-21.09 82.64-20L82.64-20Q82.64-19.19 82.86-18.49 83.08-17.8 83.64-17.13 84.2-16.46 85.16-15.76 86.13-15.06 87.64-14.26L87.64-14.26Q90.01-12.96 91.49-11.99 92.96-11.01 93.81-10.07 94.65-9.13 94.95-8.11 95.26-7.08 95.26-5.69ZM100.48-11.89L100.48-11.89Q100.48-14.48 101.34-16.91 102.19-19.34 103.78-21.23 105.36-23.12 107.62-24.26 109.88-25.39 112.69-25.39L112.69-25.39Q114.45-25.39 116.01-24.79 117.57-24.19 118.73-22.94 119.89-21.68 120.56-19.71 121.23-17.75 121.23-15.04L121.23-15.04 120.28-14.16 104.34-14.16Q104.29-13.75 104.29-13.35 104.29-12.96 104.29-12.57L104.29-12.57Q104.29-9.91 104.91-7.74 105.53-5.57 106.6-4.02 107.66-2.47 109.1-1.61 110.54-0.76 112.15-0.76L112.15-0.76Q113.18-0.76 114.24-0.92 115.3-1.07 116.31-1.42 117.33-1.76 118.28-2.29 119.23-2.83 120.04-3.59L120.04-3.59 121.04-2.54Q119.11-0.63 116.84 0.18 114.57 1 111.59 1L111.59 1Q109.25 1 107.21 0.1 105.17-0.81 103.68-2.49 102.19-4.17 101.34-6.56 100.48-8.94 100.48-11.89ZM112.15-23.71L112.15-23.71Q108.37-23.71 106.61-21.74 104.85-19.78 104.48-16.09L104.48-16.09 118.08-16.09Q117.89-20.09 116.29-21.9 114.69-23.71 112.15-23.71ZM129.38-2.44L129.38-18.09Q129.38-19.73 129.23-20.83 129.07-21.92 128.66-22.58 128.26-23.24 127.55-23.51 126.85-23.78 125.09-23.75L125.09-23.75 124.99-24.19Q128.97-25.39 132.39-25.39L132.39-25.39Q132.9-24.1 132.9-22.61L132.9-22.61 132.9-19.6 133-19.51Q134.02-20.92 134.96-22.02 135.9-23.12 136.88-23.85 137.86-24.58 138.93-24.96 140-25.34 141.32-25.34L141.32-25.34Q142.15-25.34 143.15-25.2L143.15-25.2 141.74-19.24 140.83-19.51Q140.83-19.87 140.79-20.51 140.74-21.14 140.65-21.77 140.57-22.39 140.43-22.84 140.3-23.29 140.13-23.29L140.13-23.29Q139.42-23.29 138.7-22.99 137.98-22.68 137.12-22 136.27-21.31 135.24-20.21 134.22-19.12 132.9-17.55L132.9-17.55 132.9-3.34Q132.9-2.56 133.02-2.09 133.14-1.61 133.53-1.29 133.93-0.98 134.63-0.73 135.34-0.49 136.49-0.2L136.49-0.2 136.29 0.39Q134.88 0.2 133.89 0.1 132.9 0 132.29 0L132.29 0Q130.9 0 129.04 0.39L129.04 0.39 128.9 0.15Q129.38-0.56 129.38-2.44L129.38-2.44ZM149.79-2.44L149.79-18.09Q149.79-21.56 148.97-22.74 148.16-23.93 145.5-23.75L145.5-23.75 145.4-24.19Q149.43-25.39 152.8-25.39L152.8-25.39Q153.31-24.12 153.31-22.61L153.31-22.61 153.31-4.39Q153.31-2.47 154.21-1.54 155.11-0.61 157.41-0.2L157.41-0.2 157.21 0.39Q154.41 0 152.88 0 151.35 0 149.45 0.39L149.45 0.39 149.3 0.15Q149.79-0.56 149.79-2.44L149.79-2.44ZM147.3-34.45L147.3-34.45Q149.62-35.79 152.55-36.69L152.55-36.69Q152.55-34.67 153.21-32.69L153.21-32.69 152.89-32.25Q150.57-32.1 148.06-30.96L148.06-30.96Q147.45-32.64 147.3-34.45ZM168.05-22.61L168.05-6.74Q168.05-3.42 168.78-2.16 169.52-0.9 171.15-0.9L171.15-0.9Q172.93-0.9 175.5-2.25L175.5-2.25 176.25-1.2Q172.23 1 169.66 1L169.66 1Q168.3 1 167.44 0.76 166.59 0.51 165.88-0.2 165.17-0.9 164.87-2.28 164.56-3.66 164.56-5.86L164.56-5.86 164.56-22.41 160.9-22.19 160.9-23.75Q162.83-24.17 164.56-24.29L164.56-24.29 164.56-27.76Q166.64-28.93 167.95-31.1L167.95-31.1 168.71-30.81Q168.3-29.83 168.17-28.6 168.05-27.37 168.05-24.44L168.05-24.44 176.45-24.44 176.45-23.58Q175.42-23.17 174.37-22.89 173.32-22.61 172.2-22.61L172.2-22.61 168.05-22.61ZM192.34-25.39L192.34-25.39Q197.96-25.39 201.15-21.95 204.35-18.51 204.35-12.35L204.35-12.35Q204.35-8.79 202.72-5.71 201.08-2.64 198.27-0.82 195.47 1 192.19 1L192.19 1Q186.55 1 183.37-2.4 180.18-5.81 180.18-12.06L180.18-12.06Q180.18-15.77 181.82-18.84 183.45-21.9 186.25-23.65 189.05-25.39 192.34-25.39ZM191.85-23.71L191.85-23.71Q189.92-23.71 188.51-23.14 187.09-22.58 186.24-21.63 185.38-20.68 184.87-19.21 184.36-17.75 184.17-16.21 183.99-14.67 183.99-12.65L183.99-12.65Q183.99-9.42 184.76-7.02 185.53-4.61 186.82-3.28 188.12-1.95 189.58-1.33 191.05-0.71 192.68-0.71L192.68-0.71Q194.59-0.71 196.02-1.31 197.44-1.9 198.3-2.87 199.15-3.83 199.67-5.31 200.18-6.79 200.36-8.3 200.54-9.81 200.54-11.74L200.54-11.74Q200.54-14.45 200.03-16.58 199.52-18.7 198.68-20.02 197.83-21.34 196.67-22.19 195.51-23.05 194.34-23.38 193.17-23.71 191.85-23.71ZM226.15-5.69L226.15-5.69Q226.15-3.93 225.44-2.66 224.74-1.39 223.55-0.57 222.37 0.24 220.79 0.62 219.22 1 217.48 1L217.48 1Q213.29 1 209.6-0.76L209.6-0.76Q210.06-2.37 210.53-3.75 210.99-5.13 211.48-6.3L211.48-6.3 212.19-6.05Q211.97-4.98 211.97-3.99 211.97-3 212.04-2.2L212.04-2.2Q212.8-1.81 213.46-1.53 214.12-1.25 214.77-1.06 215.43-0.88 216.19-0.79 216.95-0.71 217.95-0.71L217.95-0.71Q219.44-0.71 220.41-0.9 221.39-1.1 221.94-1.57 222.49-2.05 222.71-2.84 222.93-3.64 222.93-4.81L222.93-4.81Q222.93-5.71 222.62-6.51 222.32-7.3 221.57-8.08 220.83-8.86 219.6-9.7 218.36-10.55 216.53-11.55L216.53-11.55Q213.58-13.31 212.06-15.05 210.55-16.8 210.55-18.8L210.55-18.8Q210.55-20.39 211.21-21.62 211.87-22.85 213-23.69 214.14-24.54 215.65-24.96 217.17-25.39 218.85-25.39L218.85-25.39Q219.71-25.39 220.65-25.27 221.59-25.15 222.47-24.91 223.34-24.68 224.11-24.35 224.88-24.02 225.44-23.61L225.44-23.61Q224.66-20.41 223.54-17.99L223.54-17.99 222.83-18.26Q222.88-18.97 222.9-20.01 222.93-21.04 222.93-22.46L222.93-22.46Q221.34-23.71 218.53-23.71L218.53-23.71Q217.14-23.71 216.18-23.54 215.21-23.36 214.63-22.95 214.04-22.53 213.79-21.81 213.53-21.09 213.53-20L213.53-20Q213.53-19.19 213.75-18.49 213.97-17.8 214.53-17.13 215.09-16.46 216.06-15.76 217.02-15.06 218.53-14.26L218.53-14.26Q220.9-12.96 222.38-11.99 223.86-11.01 224.7-10.07 225.54-9.13 225.85-8.11 226.15-7.08 226.15-5.69ZM230.37-0.49L245.29-33.84Q246.12-34.35 247.19-35.79L247.19-35.79 247.44-35.79 260.89-3.39Q261.79-1.22 264.58-0.34L264.58-0.34 264.58 0.1Q262.99-0.07 260.77 0.04 258.55 0.15 256.84 0.44L256.84 0.44 256.64 0.2Q257.13-0.44 256.87-1.93 256.62-3.42 255.37-6.45L255.37-6.45 251.34-16.55Q244.17-16.67 239.48-16.5L239.48-16.5 233.84-3.39Q233.33-2.27 234.22-1.51 235.11-0.76 237.72-0.24L237.72-0.24 237.62 0.2Q233.38-0.12 230.69 0L230.69 0Q230.54-0.15 230.37-0.49L230.37-0.49ZM245.63-30.69L240.14-17.94Q243.68-17.85 250.73-17.94L250.73-17.94 245.63-30.69ZM273.19 0.49L273.19 9.5Q273.19 11.45 274.1 12.37 275 13.28 277.29 13.7L277.29 13.7 277.1 14.31Q274.39 13.89 272.58 13.89L272.58 13.89Q271.19 13.89 269.34 14.31L269.34 14.31 269.19 14.04Q269.68 13.33 269.68 11.45L269.68 11.45 269.68-18.09Q269.68-21.56 268.86-22.74 268.04-23.93 265.38-23.75L265.38-23.75 265.28-24.19Q269.31-25.39 272.68-25.39L272.68-25.39Q273.19-24.12 273.19-22.61L273.19-22.61 273.19-21.19Q275.34-23.39 277.51-24.39 279.69-25.39 282.3-25.39L282.3-25.39Q284.5-25.39 286.34-24.38 288.18-23.36 289.38-21.7 290.58-20.04 291.23-17.96 291.89-15.87 291.89-13.65L291.89-13.65Q291.89-7.06 288.41-3.03 284.94 1 278.44 1L278.44 1Q275.49 1 273.19 0.49L273.19 0.49ZM273.19-19.24L273.19-19.24 273.19-2.29Q274.34-1.66 276.29-1.26 278.25-0.85 280.2-0.85L280.2-0.85Q282.1-0.85 283.51-1.43 284.91-2 285.77-2.97 286.62-3.93 287.15-5.44 287.67-6.96 287.85-8.58 288.04-10.21 288.04-12.35L288.04-12.35Q288.04-17.92 286.16-20.79 284.28-23.66 281.18-23.66L281.18-23.66Q279.25-23.66 277.16-22.52 275.07-21.39 273.19-19.24ZM303.54 0.49L303.54 9.5Q303.54 11.45 304.44 12.37 305.34 13.28 307.64 13.7L307.64 13.7 307.44 14.31Q304.73 13.89 302.93 13.89L302.93 13.89Q301.54 13.89 299.68 14.31L299.68 14.31 299.53 14.04Q300.02 13.33 300.02 11.45L300.02 11.45 300.02-18.09Q300.02-21.56 299.2-22.74 298.39-23.93 295.72-23.75L295.72-23.75 295.63-24.19Q299.66-25.39 303.02-25.39L303.02-25.39Q303.54-24.12 303.54-22.61L303.54-22.61 303.54-21.19Q305.69-23.39 307.86-24.39 310.03-25.39 312.64-25.39L312.64-25.39Q314.84-25.39 316.68-24.38 318.53-23.36 319.72-21.7 320.92-20.04 321.58-17.96 322.24-15.87 322.24-13.65L322.24-13.65Q322.24-7.06 318.76-3.03 315.28 1 308.79 1L308.79 1Q305.83 1 303.54 0.49L303.54 0.49ZM303.54-19.24L303.54-19.24 303.54-2.29Q304.68-1.66 306.64-1.26 308.59-0.85 310.54-0.85L310.54-0.85Q312.45-0.85 313.85-1.43 315.26-2 316.11-2.97 316.96-3.93 317.49-5.44 318.01-6.96 318.2-8.58 318.38-10.21 318.38-12.35L318.38-12.35Q318.38-17.92 316.5-20.79 314.62-23.66 311.52-23.66L311.52-23.66Q309.59-23.66 307.5-22.52 305.42-21.39 303.54-19.24Z" opacity="1" transform="matrix(1,0,0,1,0,0)" fill="white" class="wordmark-text-0" id="SvgjsPath1976"></path></svg></g></svg></g></svg></g></svg></g><g transform="matrix(1,0,0,1,410.4713825247034,0)"><svg viewBox="0 0 87.52609604169862 87.52609604169862" height="87.52609604169862" width="87.52609604169862"><g><svg xmlns="http://www.w3.org/2000/svg" xmlns:xlink="http://www.w3.org/1999/xlink" version="1.1" x="0" y="0" viewBox="0 0 48 48" enable-background="new 0 0 48 48" xml:space="preserve" height="87.52609604169862" width="87.52609604169862" class="icon-icon-0" data-fill-palette-color="accent" id="SvgjsSvg1975"></svg></g></svg></g></svg></g><defs></defs></svg></g></mask><linearGradient x1="0" x2="1" y1="0.578" y2="0.595" id="66c194ba-8cec-4b83-9a76-bb757829b1aa"><stop stop-color="#6ee2f5" offset="0"></stop><stop stop-color="#6454f0" offset="1"></stop></linearGradient><rect width="395.5199890136719" height="69.51505279541016" fill="#ffffff" mask="url(#43daf2b3-b6dd-4a49-af97-b1cf84e6d400)" data-fill-palette-color="primary"></rect><mask id="32a6bb72-cbc1-4041-b581-675b01b3ad99"><g id="SvgjsG1988"><svg viewBox="0 0 395.52 69.51505378314219" height="69.51505378314219" width="395.52"><g><svg viewBox="0 0 497.99747856640204 87.52609604169862" height="69.51505378314219" width="395.52"><g transform="matrix(1,0,0,1,0,12.096587803158062)"><svg viewBox="0 0 395.52000000000004 63.3329204353825" height="63.3329204353825" width="395.52000000000004"><g id="SvgjsG1987"><svg viewBox="0 0 395.52000000000004 63.3329204353825" height="63.3329204353825" width="395.52000000000004" id="SvgjsSvg1986"><g><svg viewBox="0 0 395.52000000000004 63.3329204353825" height="63.3329204353825" width="395.52000000000004"><g transform="matrix(1,0,0,1,0,0)"><svg width="395.52000000000004" viewBox="3.759999990463257 -36.689998626708984 318.47998046875 51" height="63.3329204353825" data-palette-color="url(#66c194ba-8cec-4b83-9a76-bb757829b1aa)"></svg></g></svg></g></svg></g></svg></g><g transform="matrix(1,0,0,1,410.4713825247034,0)"><svg viewBox="0 0 87.52609604169862 87.52609604169862" height="87.52609604169862" width="87.52609604169862"><g><svg xmlns="http://www.w3.org/2000/svg" xmlns:xlink="http://www.w3.org/1999/xlink" version="1.1" x="0" y="0" viewBox="0 0 48 48" enable-background="new 0 0 48 48" xml:space="preserve" height="87.52609604169862" width="87.52609604169862" class="icon-icon-0" data-fill-palette-color="accent" id="SvgjsSvg1985"><g fill="white"><path d="M30.314 32.406c-4.232-0.029-6.328-0.029-7.877-0.029-1.008 0-1.977 1.453-0.401 1.963 0 0 6.527 1.383 6.953 2.119s-6.318 0.596-8.566 0.422c-2.25-0.176-9.885-3.436-9.885-3.436s-1.552-0.771-2.404 0.35c-0.659 0.867 0.439 1.721 0.439 1.721l12.08 7.056h15.469l1.35 1.595h0.557l1.486-9.407C39.514 34.759 34.42 32.436 30.314 32.406" fill="white"></path><polygon points="40.996,33.805 39.063,46.098 48,48 48,34.824  " fill="white"></polygon><polygon points="37.02,29.066 37.02,27.892 39.92,27.892 39.92,25.984 43.531,25.984 43.531,22.55 0,22.55 0,25.984 3.61,25.984    3.61,27.892 6.511,27.892 6.511,29.066  " fill="white"></polygon><path d="M25.477 3.965C25.113 1.703 23.509 0 21.58 0c-1.928 0-3.533 1.704-3.896 3.965C9.192 5.587 2.816 12.393 2.81 20.55h37.542C40.344 12.393 33.969 5.586 25.477 3.965z" fill="white"></path></g></svg></g></svg></g></svg></g><defs></defs><mask><g id="SvgjsG1984"><svg viewBox="0 0 395.52 69.51505378314219" height="69.51505378314219" width="395.52"><g><svg viewBox="0 0 497.99747856640204 87.52609604169862" height="69.51505378314219" width="395.52"><g transform="matrix(1,0,0,1,0,12.096587803158062)"><svg viewBox="0 0 395.52000000000004 63.3329204353825" height="63.3329204353825" width="395.52000000000004"><g id="SvgjsG1983"><svg viewBox="0 0 395.52000000000004 63.3329204353825" height="63.3329204353825" width="395.52000000000004" id="SvgjsSvg1982"><g><svg viewBox="0 0 395.52000000000004 63.3329204353825" height="63.3329204353825" width="395.52000000000004"><g transform="matrix(1,0,0,1,0,0)"><svg width="395.52000000000004" viewBox="3.759999990463257 -36.689998626708984 318.47998046875 51" height="63.3329204353825" data-palette-color="url(#66c194ba-8cec-4b83-9a76-bb757829b1aa)"></svg></g></svg></g></svg></g></svg></g><g transform="matrix(1,0,0,1,410.4713825247034,0)"><svg viewBox="0 0 87.52609604169862 87.52609604169862" height="87.52609604169862" width="87.52609604169862"><g><svg xmlns="http://www.w3.org/2000/svg" xmlns:xlink="http://www.w3.org/1999/xlink" version="1.1" x="0" y="0" viewBox="0 0 48 48" enable-background="new 0 0 48 48" xml:space="preserve" height="87.52609604169862" width="87.52609604169862" class="icon-icon-0" data-fill-palette-color="accent" id="SvgjsSvg1980"></svg></g></svg></g></svg></g><defs></defs></svg></g></mask></svg></g></mask><linearGradient x1="0" x2="1" y1="0.548" y2="0.55" id="e97a3083-9446-4758-9ee3-1c4e55e55f48"><stop stop-color="#ff6cab" offset="0"></stop><stop stop-color="#7366ff" offset="1"></stop></linearGradient><rect width="395.5199890136719" height="69.51505279541016" fill="#ffffff" mask="url(#32a6bb72-cbc1-4041-b581-675b01b3ad99)" data-fill-palette-color="accent"></rect></svg><rect width="395.52" height="69.51505378314219" fill="none" stroke="none" visibility="hidden"></rect></g></svg></g></svg>